<?xml version="1.0" encoding="utf-8"?>
<!-- Generator: Adobe Illustrator 20.0.0, SVG Export Plug-In . SVG Version: 6.00 Build 0)  -->
<svg version="1.1" id="Слой_1" xmlns="http://www.w3.org/2000/svg" xmlns:xlink="http://www.w3.org/1999/xlink" x="0px" y="0px"
	 viewBox="0 0 951.8 138" style="enable-background:new 0 0 951.8 138;" xml:space="preserve">
<style type="text/css">
	.st0{fill:#FFFFFF;}
	.st1{fill:#FF0075;}
</style>
<title>NORDART</title>
<path class="st0" d="M90.8,135.6L34.4,58.4v77.2H0V2.2h35.4l54,73.4V2.2H124v133.4H90.8z"/>
<path class="st0" d="M174.6,128.4l-5.8,7.2h-24l15-18.6c-11.8-12-18.6-28.6-18.6-48c0-40.6,30.6-69,71.4-69c12.1-0.1,24.1,2.6,35,8
	l4.8-5.8h24L263,18.8C276,31,283.8,48.4,283.8,69c0,40.6-30.4,69-71.2,69C198.4,138,185.4,134.6,174.6,128.4z M181.4,90.2l45.8-56.8
	c-4.6-2-9.6-3.1-14.6-3c-22.2,0-36.4,16.8-36.4,38.6C176.1,76.4,177.9,83.7,181.4,90.2L181.4,90.2z M248.8,69
	c0.1-8.5-2.3-16.7-7-23.8l-47,58.2c5.5,2.8,11.6,4.2,17.8,4.2C234.6,107.6,248.8,90.6,248.8,69L248.8,69z"/>
<path class="st0" d="M375.6,135.6l-22.4-44.8h-17.6v44.8h-34.4V2.2H368c29.6,0,46.4,19.6,46.4,44.4c0,23.2-14.2,35.6-26.6,40
	l27.2,49H375.6z M379.4,46.4c0-9-7.6-14.2-16.6-14.2h-27.2v28.6h27.2C371.8,60.8,379.4,55.8,379.4,46.4L379.4,46.4z"/>
<path class="st0" d="M433.4,135.6V2.2h56c42,0,72.2,25.2,72.2,66.6s-30.2,66.8-72,66.8H433.4z M526.4,68.8
	c0-20.6-12.4-36.6-36.8-36.6h-21.8v73.4h21.6C512.8,105.6,526.4,88.6,526.4,68.8L526.4,68.8z"/>
<path class="st1" d="M669.4,135.6l-6.6-19.2h-52.6l-6.6,19.2h-39L614.8,2.2H658l50.4,133.4H669.4z M636.4,36.2l-17,50.2h34
	L636.4,36.2z"/>
<path class="st1" d="M792.6,135.6l-22.4-44.8h-17.6v44.8h-34.4V2.2H785c29.6,0,46.4,19.6,46.4,44.4c0,23.2-14.2,35.6-26.6,40
	l27.2,49H792.6z M796.4,46.4c0-9-7.6-14.2-16.6-14.2h-27.2v28.6h27.2C788.8,60.8,796.4,55.8,796.4,46.4z"/>
<path class="st1" d="M880.2,135.6V32.2h-37.4v-30h109v30h-37.2v103.4H880.2z"/>
</svg>
